<svg 
 xmlns="http://www.w3.org/2000/svg"
 xmlns:xlink="http://www.w3.org/1999/xlink"
 width="20px" height="26px">
<path fill-rule="evenodd"  fill="rgb(255, 255, 255)"
 d="M19.361,6.808 L15.861,12.870 C15.309,13.827 14.086,14.155 13.129,13.602 L12.263,13.102 L13.263,11.370 L13.263,11.370 C13.741,11.646 14.353,11.482 14.629,11.004 L17.129,6.674 C17.405,6.196 17.241,5.584 16.763,5.308 L13.299,3.308 C12.821,3.032 12.209,3.196 11.933,3.674 L9.433,8.004 C9.157,8.483 9.321,9.094 9.799,9.370 L8.799,11.102 L7.933,10.602 C6.976,10.050 6.649,8.827 7.201,7.870 L10.701,1.808 C11.253,0.852 12.476,0.524 13.433,1.076 L18.629,4.076 C19.586,4.628 19.913,5.852 19.361,6.808 ZM7.531,17.298 C7.053,17.022 6.889,16.411 7.165,15.932 L11.165,9.004 C11.441,8.526 12.053,8.362 12.531,8.638 C13.009,8.914 13.173,9.526 12.897,10.004 L8.897,16.932 C8.621,17.411 8.009,17.575 7.531,17.298 ZM6.799,14.566 L6.799,14.566 C6.321,14.290 5.709,14.454 5.433,14.933 L2.933,19.263 C2.657,19.741 2.821,20.352 3.299,20.629 L6.763,22.629 C7.241,22.905 7.853,22.741 8.129,22.263 L10.629,17.932 C10.905,17.454 10.741,16.842 10.263,16.567 L10.263,16.567 L11.263,14.834 L12.129,15.334 C13.086,15.887 13.413,17.110 12.861,18.066 L9.361,24.129 C8.809,25.085 7.586,25.413 6.629,24.861 L1.433,21.861 C0.476,21.308 0.149,20.085 0.701,19.129 L4.201,13.067 C4.753,12.110 5.976,11.782 6.933,12.334 L7.799,12.834 L6.799,14.566 Z"/>
</svg>