<svg 
 xmlns="http://www.w3.org/2000/svg"
 xmlns:xlink="http://www.w3.org/1999/xlink"
 width="35px" height="25px">
<path fill-rule="evenodd"  fill="rgb(255, 255, 255)"
 d="M17.325,24.142 C6.699,24.142 0.162,12.483 0.162,12.483 C0.162,12.483 6.762,0.824 17.325,0.824 C27.324,0.824 34.805,12.483 34.805,12.483 C34.805,12.483 27.262,24.142 17.325,24.142 ZM17.418,7.257 C14.525,7.257 12.179,9.602 12.179,12.496 C12.179,15.389 14.525,17.734 17.418,17.734 C20.311,17.734 22.657,15.389 22.657,12.496 C22.657,9.602 20.311,7.257 17.418,7.257 ZM17.450,15.092 C16.010,15.092 14.843,13.925 14.843,12.485 C14.843,11.045 16.010,9.877 17.450,9.877 C18.890,9.877 20.057,11.045 20.057,12.485 C20.057,13.925 18.890,15.092 17.450,15.092 Z"/>
</svg>