<svg 
 xmlns="http://www.w3.org/2000/svg"
 xmlns:xlink="http://www.w3.org/1999/xlink"
 width="21px" height="17px">
<path fill-rule="evenodd"  fill="rgb(255, 255, 255)"
 d="M16.624,16.990 L16.624,15.674 L19.506,15.674 L19.506,12.955 L20.992,12.955 L20.992,16.990 L16.624,16.990 ZM19.506,1.313 L16.624,1.313 L16.624,-0.004 L20.992,-0.004 L20.992,4.032 L19.506,4.032 L19.506,1.313 ZM1.492,4.032 L0.006,4.032 L0.006,-0.004 L4.374,-0.004 L4.374,1.313 L1.492,1.313 L1.492,4.032 ZM2.888,2.715 L18.110,2.715 L18.110,14.272 L2.888,14.272 L2.888,2.715 ZM4.374,12.955 L16.624,12.955 L16.624,4.032 L4.374,4.032 L4.374,12.955 ZM5.815,5.434 L15.228,5.434 L15.228,11.553 L5.815,11.553 L5.815,5.434 ZM1.492,15.674 L4.374,15.674 L4.374,16.990 L0.006,16.990 L0.006,12.955 L1.492,12.955 L1.492,15.674 Z"/>
</svg>