<svg 
 xmlns="http://www.w3.org/2000/svg"
 xmlns:xlink="http://www.w3.org/1999/xlink"
 width="24px" height="23px">
<path fill-rule="evenodd"  fill="rgb(42, 172, 200)"
 d="M16.668,16.679 L9.000,23.000 L10.725,17.310 C4.698,16.849 -0.000,13.162 -0.000,8.680 C-0.000,3.886 5.373,-0.000 12.000,-0.000 C18.627,-0.000 24.000,3.886 24.000,8.680 C24.000,12.276 20.977,15.361 16.668,16.679 ZM12.000,1.813 C6.756,1.813 2.506,4.888 2.506,8.681 C2.506,12.473 6.756,15.548 12.000,15.548 C17.243,15.548 21.494,12.473 21.494,8.681 C21.494,4.888 17.243,1.813 12.000,1.813 ZM7.500,8.161 L16.500,8.161 L16.500,9.645 L7.500,9.645 L7.500,8.161 ZM7.500,5.193 L16.500,5.193 L16.500,6.677 L7.500,6.677 L7.500,5.193 ZM14.259,12.613 L9.759,12.613 L9.759,11.129 L14.259,11.129 L14.259,12.613 Z"/>
</svg>