<svg 
 xmlns="http://www.w3.org/2000/svg"
 xmlns:xlink="http://www.w3.org/1999/xlink"
 width="24px" height="20px">
<path fill-rule="evenodd"  fill="rgb(42, 172, 200)"
 d="M17.825,14.007 L16.267,14.007 L13.116,11.155 C15.012,10.528 16.131,9.568 16.663,8.992 L16.663,8.370 C16.008,8.487 14.534,7.978 15.147,7.676 C15.462,7.521 15.640,7.228 15.746,6.951 C15.689,6.776 15.652,6.592 15.641,6.399 L15.627,6.129 C15.589,6.141 15.552,6.153 15.510,6.153 C15.297,6.153 15.125,5.977 15.125,5.760 L15.125,4.975 C15.125,4.758 15.297,4.582 15.510,4.582 C15.522,4.582 15.532,4.588 15.543,4.589 L15.515,4.081 C15.438,2.680 16.471,1.474 17.827,1.474 C19.182,1.474 20.213,2.680 20.136,4.081 L20.107,4.589 C20.119,4.588 20.128,4.582 20.139,4.582 C20.352,4.582 20.525,4.758 20.525,4.975 L20.525,5.760 C20.525,5.977 20.352,6.153 20.139,6.153 C20.098,6.153 20.060,6.141 20.022,6.129 L20.007,6.399 C19.995,6.619 19.942,6.824 19.871,7.020 C19.980,7.275 20.153,7.534 20.442,7.676 C21.038,7.969 19.667,8.457 18.987,8.377 L18.987,8.992 C19.547,9.599 20.750,10.638 22.840,11.258 C22.840,11.258 23.997,12.174 23.997,13.091 L23.997,14.007 L17.825,14.007 ZM13.955,7.459 C13.886,7.459 13.824,7.440 13.762,7.421 L13.737,7.852 C13.670,9.031 13.008,10.036 12.060,10.621 L12.060,11.987 C12.981,12.956 14.960,14.614 18.395,15.603 C18.395,15.603 20.298,17.065 20.298,18.527 L20.298,19.989 L10.149,19.989 L-0.000,19.989 L-0.000,18.527 C-0.000,17.065 1.903,15.603 1.903,15.603 C5.338,14.614 7.316,12.956 8.238,11.987 L8.238,10.623 C7.288,10.039 6.625,9.033 6.558,7.852 L6.534,7.421 C6.473,7.440 6.411,7.459 6.343,7.459 C5.993,7.459 5.709,7.179 5.709,6.833 L5.709,5.580 C5.709,5.234 5.993,4.953 6.343,4.953 C6.362,4.953 6.378,4.962 6.396,4.964 L6.351,4.153 C6.225,1.918 7.923,-0.006 10.152,-0.006 C12.380,-0.006 14.077,1.918 13.949,4.153 L13.902,4.964 C13.921,4.962 13.936,4.953 13.955,4.953 C14.305,4.953 14.589,5.234 14.589,5.580 L14.589,6.833 C14.589,7.179 14.305,7.459 13.955,7.459 Z"/>
</svg>